<svg xmlns="http://www.w3.org/2000/svg" width="27.968" height="27.914"><path d="M0 22.54c0-2.956.053-5.374.118-5.374s1.04.919 2.166 2.043l2.048 2.043 2.086-2.081 2.086-2.081 1.161 1.161 1.161 1.161-2.081 2.086-2.081 2.086 2.043 2.048c1.124 1.126 2.043 2.101 2.043 2.166 0 .065-2.418.118-5.374.118h-5.374v-5.374zm17.165 5.256c0-.065.919-1.04 2.043-2.166l2.043-2.048-2.081-2.086-2.081-2.086 1.161-1.161 1.161-1.161 2.086 2.081 2.086 2.081 2.048-2.043c1.126-1.124 2.101-2.043 2.166-2.043.065 0 .118 2.418.118 5.374v5.374h-5.374c-2.956 0-5.374-.053-5.374-.118zm8.58-18.981l-2.169-2.147-2.083 2.079-2.083 2.079-1.161-1.161-1.161-1.161 2.081-2.086 2.081-2.086-2.043-2.048c-1.124-1.126-2.043-2.101-2.043-2.166 0-.065 2.414-.118 5.364-.118h5.364l.05 5.414c.027 2.978.032 5.444.01 5.481-.022.037-1.016-.9-2.209-2.081zm-25.746-3.441v-5.374h5.374c2.956 0 5.374.053 5.374.118s-.919 1.04-2.043 2.166l-2.043 2.048 2.081 2.086 2.081 2.086-1.161 1.161-1.161 1.161-2.086-2.081-2.086-2.081-2.048 2.043c-1.126 1.124-2.101 2.043-2.166 2.043-.065 0-.118-2.418-.118-5.374z" fill="#fff"/></svg>