<svg xmlns="http://www.w3.org/2000/svg" width="32" height="31.994"><path d="M2.773 31.14c-2.248-1.371-2.359-2.088-2.359-15.259 0-13.148.111-13.837 2.447-15.262 1.085-.662 2.114-.716 13.598-.717 12.303-.002 12.437.007 13.714.867 2.229 1.502 2.242 1.59 2.242 15.137s-.013 13.635-2.242 15.137c-1.277.86-1.411.869-13.714.867-11.789-.001-12.489-.041-13.686-.771zm26.43-2.45l.935-.935v-23.696l-.935-.935-.935-.935h-11.746c-10.014 0-11.871.087-12.593.593-.846.593-.847.607-.847 13.126s.001 12.533.847 13.126c.722.506 2.579.593 12.593.593h11.746l.935-.935zm-23.962-1.605c-.14-.14-.254-1.855-.254-3.811 0-4.075.199-4.262 2.325-2.185l1.404 1.371 2.738-2.705c1.506-1.488 2.901-2.705 3.101-2.705.2 0 .468.272.596.604.158.413-.631 1.473-2.494 3.348l-2.725 2.744 1.513 1.477c.832.813 1.424 1.621 1.316 1.797-.233.376-7.149.436-7.52.065zm14.989-.243c0-.273.598-1.077 1.33-1.786l1.33-1.289-2.724-2.809c-2.54-2.619-2.681-2.852-2.09-3.443.591-.591.821-.448 3.41 2.123l2.776 2.757 1.298-1.34c2.063-2.128 2.292-1.881 2.292 2.471v3.811h-3.811c-2.879 0-3.811-.122-3.811-.497zm-8.903-14.753l-2.674-2.674-1.373 1.34c-2.14 2.09-2.337 1.879-2.212-2.375l.109-3.716 3.586-.11c1.972-.061 3.73.033 3.906.209.176.176-.368.991-1.209 1.812l-1.528 1.492 2.725 2.744c1.862 1.875 2.652 2.935 2.494 3.348-.401 1.045-1.073.681-3.824-2.07zm6.608 2.092c-.409-.493-.067-.998 2.247-3.312l2.73-2.73-1.34-1.373c-2.063-2.112-1.868-2.293 2.47-2.293h3.811v3.811c0 4.353-.229 4.6-2.292 2.471l-1.298-1.34-2.691 2.673c-1.48 1.47-2.795 2.673-2.922 2.673-.127 0-.448-.262-.713-.582z" fill="#fff"/></svg>