<svg xmlns="http://www.w3.org/2000/svg" width="32" height="31.994"><path d="M2.399 31.251c-2.347-1.431-2.399-1.761-2.399-15.056 0-13.354.107-14.053 2.358-15.425 1.197-.729 1.894-.769 13.642-.769 11.609 0 12.457.046 13.601.744 2.351 1.434 2.399 1.741 2.399 15.254 0 13.512-.048 13.82-2.399 15.254-1.144.697-1.991.744-13.601.744-11.609 0-12.457-.046-13.601-.744zm26.38-2.474l.935-.935v-23.688l-.935-.935-.935-.935h-11.785c-11.035 0-11.842.046-12.684.728l-.899.728v24.516l.899.728c.842.682 1.649.728 12.684.728h11.785l.935-.935zm-24.012-1.724c-.357-.578.314-1.529 2.823-3.995l2.312-2.273-1.589-1.619c-1.933-1.97-1.736-2.1 2.955-1.947l3.398.111.111 3.398c.153 4.69.023 4.888-1.946 2.956l-1.618-1.588-2.644 2.665c-2.58 2.6-3.332 3.053-3.803 2.291zm18.682-2.273l-2.626-2.646-1.497 1.542c-.936.964-1.631 1.408-1.855 1.183-.197-.197-.309-1.972-.248-3.944l.11-3.585 3.585-.11c1.972-.061 3.729.033 3.904.209.176.176-.368.991-1.208 1.811l-1.528 1.492 2.724 2.743c1.862 1.874 2.651 2.934 2.493 3.347-.409 1.066-1.171.662-3.854-2.042zm-16.211-10.408c0-.281.603-1.095 1.339-1.808l1.339-1.298-2.726-2.744c-1.863-1.875-2.652-2.935-2.494-3.348.409-1.067 1.172-.661 3.873 2.061l2.644 2.665 1.618-1.588c1.969-1.932 2.099-1.734 1.946 2.956l-.111 3.398-3.714.109c-2.905.085-3.714-.002-3.714-.401zm10.159.229c-.336-.336-.329-7.163.009-7.501.144-.144.976.437 1.847 1.293l1.585 1.555 2.596-2.689c2.636-2.73 3.453-3.171 3.87-2.085.158.413-.631 1.473-2.493 3.347l-2.724 2.743 1.513 1.477c.832.812 1.424 1.621 1.315 1.796-.233.376-7.146.436-7.517.065z" fill="#fff"/></svg>