<svg xmlns="http://www.w3.org/2000/svg" xmlns:xlink="http://www.w3.org/1999/xlink" width="210mm" height="297mm"><defs><linearGradient id="b"><stop offset="0"/><stop offset="1" stop-opacity="0"/></linearGradient><linearGradient id="a"><stop offset="0"/><stop offset="1" stop-opacity="0"/></linearGradient><filter><feGaussianBlur stdDeviation="5.13"/></filter><filter><feGaussianBlur stdDeviation="5.263"/></filter><filter id="d"><feGaussianBlur stdDeviation="4.135"/></filter><filter><feGaussianBlur stdDeviation="4.792"/></filter><linearGradient xlink:href="#a" id="e" x1="134.992" y1="505.183" x2="682.572" y2="505.183" gradientUnits="userSpaceOnUse" gradientTransform="translate(5.714 11.429)"/><filter id="f"><feGaussianBlur stdDeviation="2.632"/></filter><linearGradient xlink:href="#b" x1="311.374" y1="505.329" x2="541.376" y2="505.329" gradientUnits="userSpaceOnUse"/><linearGradient xlink:href="#b" id="c" gradientUnits="userSpaceOnUse" x1="311.374" y1="505.329" x2="541.376" y2="505.329"/><linearGradient xlink:href="#b" gradientUnits="userSpaceOnUse" x1="311.374" y1="505.329" x2="541.376" y2="505.329"/></defs><g><path d="M335.726 608.572l7.119-108.892 7.119-108.892 90.744 60.612 90.744 60.612-97.863 48.28z" fill="url(#c)" filter="url(#d)"/><path d="M321.85 301.947c-4.914-.319-9.846-.273-14.769-.286-5.396-.598-10.427 1.263-15.688 2.072-13.893 6.371-3.534 1.689 32.121-18.261.594-.332-1.158.715-1.746 1.058-12.501 7.279-25.226 14.185-37.521 21.807-11.13 6.9 22.644-13.161 34.024-19.639.604-.344-1.122.819-1.683 1.229-3.239 2.247-6.29 4.842-9.002 7.708-1.754 3.813-4.505 6.932-6.765 10.425-2.554 3.264-4.237 7.064-6.72 10.381-1.968 3.954-5.055 6.908-7.976 10.134-2.868 3.531-5.645 7.164-8.887 10.363-3.446 2.184-5.839 5.509-8.621 8.409-2.688 3.022-5.398 6.053-8.342 8.832-2.835 2.876-5.588 5.848-8.556 8.591-2.985 2.947-6.247 5.44-9.272 8.363-3.307 3.19-5.984 6.946-9.671 9.722-3.325 2.484-5.484 5.943-7.764 9.315-2.301 3.799-3.134 8.249-4.494 12.441-1.472 4.804-4.106 9.151-6.466 13.557-1.993 4.702-3.898 9.501-5.398 14.391-1.6 4.329-2.64 8.897-4.444 13.144-2.826 3.506-4.301 7.344-5.096 11.727-.722 5.434-.696 10.931-.72 16.402-.236 5.059-1.536 9.977-2.151 14.999-.564 5.472-.612 10.978-.661 16.474-.029 5.712-.014 11.424-.008 17.135.362 5.199-1.036 10.221-1.858 15.302-.77 5.351-.877 10.764-.965 16.16-.295 5.035-1.603 9.926-2.222 14.929-.193 4.772 2.741 9.125 5.306 12.981 2.46 4.184 5.05 8.257 6.632 12.868.971 4.835 3.636 9.016 5.241 13.646 2.126 4.187 3.344 8.704 5.068 13.051 1.748 4.315 3.638 8.433 4.637 13.014.326 4.223 2.392 7.882 4.776 11.296 2.278 3.841 4.035 8.048 5.572 12.247 2.237 3.74 3.052 8.031 5.153 11.819 3.17 3.18 6.009 6.554 8.921 9.957 2.119 3.563 5.833 5.503 8.804 8.239 3.271 2.302 6.551 4.46 10.449 5.517 3.991 1.916 7.87 4.006 11.733 6.178 4.407 2.277 8.726 4.688 13.303 6.651 4.236 2.225 7.741 5.436 12.314 6.96 5.282 1.148 10.138 3.591 15.304 5.141 5.09 1.039 9.921 3.176 13.957 6.447 3.68 2.655 8.161 3.725 12.11 5.928 4.374 2.048 8.953 3.34 13.186 5.725 3.464 3.752 8.218 4.641 12.628 6.607 4.379 1.979 9.16 2.363 13.89 2.648 5.644.48 11.169 1.874 16.831 2.472 5.351-.097 10.388 1.64 15.606 2.522 5.226.739 10.515.805 15.783.875 5.525-.548 10.286.84 15.175 3.182 4.312 1.888 9.036 2.158 13.67 2.407 5.584.208 11.173.172 16.76.163 5.795.551 11.301-.629 16.959-1.595 5.5-.146 10.571-1.738 15.862-2.952 5.003-.21 9.571-1.796 14.388-2.903 3.136-1.006 6.797-.023 9.745-1.66 1.232-.685 2.225-1.738 3.406-2.507.652-.29 2.574-1.23 1.957-.871-10.714 6.228-43.062 24.554-32.324 18.368 12.544-7.226 25.037-14.543 37.701-21.557 2.916-.727 1.567-.168 4.065-1.636 13.988-5.95 3.413-1.543-32.092 18.582-.605.343 1.175-.745 1.766-1.111 1.838-1.136 3.04-2.106 4.416-3.782 10.294-11.546 32.734-20.176 40.846-24.758 2.234-1.262 4.789-1.559 7.072-2.806 16.118-4.91 37.123-18.76-22.773 15.185 3.612-1.916 5.719-5.565 8.907-8.031 3.66-2.277 5.664-5.353 7.788-8.962 1.844-3.992 3.276-8.188 4.774-12.331 1.801-3.764 4.898-6.742 8.009-9.455 2.978-2.965 4.295-7.069 6.704-10.469 2.745-2.934 6.021-5.277 8.882-8.082 2.367-3.5 3.778-7.462 6.854-10.448 3.447-2.498 5.495-5.648 7.611-9.24 2.131-4.016 2.777-8.552 4.333-12.799 2.363-3.568 5.089-6.388 6.427-10.558 1.46-4.366 2.441-8.898 3.969-13.239 1.243-4.348 2.885-8.565 4.193-12.891.413-4.712 2.798-8.395 5.033-12.381 2.913-3.381 3.731-7.674 5.185-11.742 1.505-4.415 2.289-9 3.632-13.467 1.446-4.911 1.738-10.033 1.954-15.117.17-5.666.145-11.336.14-17.004-.01-5.721-.017-11.443-.021-17.164-.003-5.715-.003-11.431-.004-17.146-.431-5.004 1.043-10.467-.933-15.214-2.512-3.94-3.12-8.542-4.455-12.903-1.134-4.385-3.217-8.385-4.477-12.728-1.812-4.028-2.896-8.288-4.492-12.396-2.023-3.646-4.266-7.184-6.004-10.978-1.835-4.117-3.022-8.478-4.643-12.667-2.172-3.963-1.748-8.823-4.087-12.645-2.207-3.742-4.171-7.691-5.794-11.729-2.609-3.807-3.322-8.319-4.717-12.597-.795-4.408-4.594-5.479-7.422-8.336-2.377-3.626-5.262-6.87-7.336-10.684-2.241-3.014-5.125-5.672-8.074-8.014-2.636-3.146-6-5.323-9.173-7.815-3.797-2.026-5.893-5.915-8.739-8.971-3.436-3.883-7.93-7.098-12.25-10.006-4.216-3.188-8.664-6.364-13.556-8.435-4.316-1.546-6.662-5.464-10.188-8.019-3.747-1.574-6.665-4.483-10.339-6.18-3.729-2.071-6.791-4.984-10.119-7.591-2.636-3.163-5.965-5.403-9.132-7.928-3.518-2.028-6.038-5.319-9.613-7.24-4.111-2.319-8.482-4.41-12.963-5.956-4.684-.794-9.027-2.656-13.693-3.553-4.793-.208-8.616-3.101-12.887-4.845-4.533-.825-8.872-2.211-13.341-3.319-4.994-1.039-10.114-1.147-15.195-1.258-5.64-1.29-11.349-2.104-17.113-2.543-5.68-.347-11.372-.349-17.06-.362-5.032-.558-8.426 3.14-13.028 4.499-.777.153-1.582.204-2.331.46-.688.236-1.293.667-1.94 1.001-.685.268-1.356.573-2.054.804-2.29.758-4.352.942-6.525 2.038-2.009 1.238-4.474 1.137-6.626 1.854-2.129.709-4.014 1.795-6.224 2.406-.784.149-1.596.194-2.353.447-.693.232-2.591 1.355-1.956.993 59.204-33.707 41.928-23.556 29.008-15.994-13.167 9.655-5.028 3.782-39.326 22.893-1.018.567-3.567.626-4.611.939-1.418.425-2.716 1.184-4.11 1.681-4.608.824-8.663 2.916-13.28 3.778-13.489 6.795-5.476 2.798 32.211-18.337 1.211-.679-2.248 1.642-3.455 2.328-40.547 23.065-25.752 13.156-39.599 22.493-1.876 1.386-4.277 1.324-6.362 2.067-2.118.755-3.936 1.83-6.153 2.447-2.145.351-4.464 1.147-6.365 2.237-.607.348-2.244 1.661-1.635 1.317 33.639-19.047 43.723-28.764 32.644-18.322-13.626 11.517-33.794 20.81-47.25 28.524 78.625-45.08 8.92-5.173-3.844 2.402-11.106 6.592 22.352-12.943 33.56-19.359.682-.39-1.344.819-1.979 1.283-1.26.922-2.415 1.979-3.622 2.968-3.245 2.877-6.126 6.129-9.325 9.049-3.321 2.34-6.169 5.223-9.257 7.868-3.115 2.669-6.454 4.976-9.935 7.146-13.609 13.603-22.759 16.029-44.78 28.939 11.332-6.542 22.638-13.131 33.997-19.627.611-.349-1.137.834-1.748 1.183-12.571 7.187-24.994 14.648-37.793 21.421-11.55 6.111 45.239-26.175 34.043-19.437-12.392 7.458-25.015 14.527-37.633 21.597-11.424 6.402 22.702-13.061 34.053-19.592-3.295 2.474-6.621 4.848-9.962 7.254l-1.654 1.058-38.798 15.608 1.497-1.506c3.606-2.034 6.833-4.462 10.036-7.034 12.458-7.329 25.491-13.757 37.373-21.986 10.735-7.434-45.498 25.634-33.921 19.595 12.82-6.688 24.782-14.951 37.653-21.542 11.617-5.948-22.604 13.052-33.886 19.613-.593.345 1.213-.642 1.819-.964l37.399-21.939c-75.526 44.355-33.32 23.679-26.511 12.925 2.992-2.957 7.063-4.172 9.88-7.295 3.543-2.209 6.465-4.931 9.228-8.017 4.011-1.929 6.27-5.728 9.713-8.429 10.798-12.296 32.91-21.01 42.983-27.015 1.285-.766-97.957 56.784 3.906-2.207-61.09 35.51-37.278 22.04-23.928 13.419 13.128-12.551 29.67-21.609 46.964-26.736 4.08-1.634 8.335-2.845 12.116-5.141 13.968-6.124 1.254-.636-31.934 18.73-1.184.691 2.335-1.437 3.52-2.126 37.462-21.753 23.66-18.021 39.828-22.148 4.375-1.344 8.676-2.878 13.07-4.157 2.136-.766 4.387-1.212 6.474-2.105.669-.286 2.575-1.357 1.948-.988-43.526 25.526-44.588 26.18-32.13 18.659 1.537-1.381 3.308-2.504 5.095-3.543 24.004-13.955 25.568-18.161 42.021-22.88 4.22-1.598 8.566-2.734 12.756-4.42 4.386-1.146 8.54-2.923 12.851-4.298 4.514-2.082 8.512-3.838 13.679-3.095 5.759.049 11.526.113 17.264.659 5.695.618 11.302 1.81 17.004 2.305 5.348.206 10.732.499 15.925 1.906 4.599 1.294 9.319 2.129 13.788 3.821 3.972 1.901 7.84 3.815 12.318 4.23 4.721 1.194 9.352 2.749 14.035 4.064 4.607 1.949 9.202 4.012 13.537 6.509 3.42 2.35 6.351 5.33 9.853 7.58 3.308 2.422 6.296 5.129 9.199 8.027 3.038 2.551 6.119 5.041 9.639 6.917 3.683 2.145 7.136 4.676 10.813 6.84 3.066 2.683 5.601 5.777 9.53 7.324 4.784 2.613 9.242 5.815 13.498 9.212 4.592 3.236 9.67 6.204 13.325 10.504 2.568 2.984 4.77 6.315 8.299 8.277 3.344 2.402 6.392 5.077 9.297 8.001 3.212 2.833 6.557 5.697 8.836 9.362 1.887 3.408 4.5 6.354 6.713 9.554 3.455 3.036 7.42 5.195 8.351 10.177 1.385 4.198 2.05 8.606 4.62 12.352 1.532 3.87 3.449 7.626 5.557 11.206 2.263 4.18 2.422 8.876 4.342 13.213 1.585 4.115 2.737 8.394 4.543 12.433 1.766 3.868 4.145 7.428 6.1 11.204 1.645 4.232 2.778 8.609 4.634 12.765 1.197 4.326 3.359 8.27 4.444 12.636 1.326 4.255 1.859 8.746 4.334 12.594 2.084 5.384 1.272 11.083 1.378 16.761 0 5.715 0 11.43.002 17.145.003 5.721.007 11.441.019 17.162.011 5.702.037 11.404-.037 17.105-.111 5.317-.225 10.674-1.315 15.9-1.156 4.607-2.749 9.006-3.458 13.729-.488 1.366-1.201 2.651-1.618 4.04-.885 2.949-.942 6.162-3.027 8.672-2.383 2.74-.305.082-2.218 3.452-1.489 2.623-3.854 4.185-3.583 7.62-.941 4.591-2.996 8.675-3.954 13.248-.503 1.349-1.235 2.612-1.653 3.99-.886 2.924-.95 6.144-2.586 8.85-.742 4.419-1.749 8.956-5.888 11.413-2.733 3.834-2.842 8.487-4.307 12.846l-.937 1.966c-.377.558-.829 1.073-1.131 1.675-1.333 2.665-1.957 5.4-5.008 6.718-4.941 5.122 2.071-1.908-3.04 2.478-2.081 1.786-3.008 4.992-4.068 7.398-2.057 3.785-5.546 5.836-8.598 8.724-3.788 2.348-4.787 6.594-6.746 10.367-2.57 3.036-5.884 5.32-8.628 8.195-2.298 3.787-3.238 8.342-4.68 12.497l-.931 1.972c-.375.56-.826 1.077-1.126 1.681-1.34 2.695-1.97 5.431-5.077 6.72-3.717 3.576.788-.504-3.221 2.373-2.256 1.618-3.522 4.459-5.447 6.414-22.315 12.672-30.064 18.747-48.791 25.649-1.868.695-2.899 1.027-4.702 1.911-.752.369-2.933 1.623-2.208 1.203 56.704-32.903 42.773-24.157 30.089-17.688-3.795 4.121 1.159-1.477-2.478 3.433-1.153 1.556-1.641 1.671-3.265 2.607-37.983 21.886-24.521 15.492-39.546 22.556-1.366.5-5.27 2.448-4.015 1.712 72.056-42.204 14.211-7.779-7.198 4.26-4.306 2.148-9.192 1.782-13.756 3.179-4.745 1.273-9.593 1.725-14.372 2.848-5.223 1.311-10.536 1.742-15.848 2.585-5.772.966-11.531 1.279-17.386 1.052-5.672-.002-11.351.024-17.013-.351-5.067-.454-10.114-1.191-14.729-3.478-4.467-1.931-9.101-2.138-13.935-1.971-5.458-.133-10.941-.315-16.319-1.342-5.071-1.043-10.08-2.253-15.286-2.423-5.608-.777-11.147-2.091-16.824-2.269-5.091-.511-10.111-1.392-14.768-3.629-4.593-1.765-8.888-3.791-12.755-6.901-4.378-1.978-8.942-3.496-13.188-5.754-4.29-2.013-8.985-3.285-12.649-6.437-3.884-2.702-8.263-4.352-12.842-5.496-5.231-1.793-10.428-3.666-15.739-5.215-4.319-2.019-7.934-5.107-12.233-7.177-4.611-2.109-9.053-4.487-13.569-6.778-3.844-1.826-7.393-4.211-11.432-5.615-4.156-1.643-7.963-4.055-11.448-6.847-3.249-2.721-6.828-5.149-9.086-8.837-2.937-3.668-6.193-6.982-9.197-10.599-2.361-3.948-3.274-8.43-5.565-12.433-1.394-3.889-3.034-7.777-5.144-11.32-2.542-3.904-5.058-8.03-5.404-12.782-.878-4.375-2.764-8.237-4.375-12.361-1.726-4.428-2.934-9.015-5.012-13.308-1.548-4.673-4.494-8.72-5.371-13.604-1.378-4.308-3.865-8.087-6.025-12.032-2.931-4.767-6.28-9.72-6.602-15.443.406-4.955 1.126-9.852 2.491-14.644.038-5.524.068-11.059.597-16.563.589-5.006 2.146-9.848 2.266-14.86-.006-5.719-.018-11.438-.014-17.156.016-5.592.018-11.191.377-16.774.405-4.966 1.133-9.871 2.45-14.686-.008-5.61-.057-11.227.325-16.827.449-4.681.984-9.55 4.094-13.309 3.334-3.227 2.763-8.145 5.211-12.003 1.173-5.3 3.594-10.065 5.174-15.237 2.021-4.341 4.375-8.51 6.555-12.764 1.158-4.525 2.774-8.87 3.935-13.39 2.068-3.821 4.407-7.362 7.252-10.635 4.265-3.81-1.033.698 3.571-2.524 2.519-1.763 4.222-4.69 6.263-6.922 3.05-2.896 5.434-6.171 9.258-8.076 2.502-3.162 5.704-5.753 8.567-8.564 2.487-3.165 5.665-5.745 8.418-8.662 2.438-3.37 5.501-6.314 8.283-9.383 4.097-2.098 6.323-6.069 9.456-9.298 2.38-3.698 6.125-5.927 7.895-9.907 2.275-3.5 5.024-6.619 6.643-10.541 2.714-3.001.003.247 2.324-3.412 1.53-2.412 4.275-3.607 4.53-6.828 1.972-3.871 5.387-6.17 8.401-9.17 12.91-7.893 26.55-14.617 39.066-23.121 10.81-7.344-22.551 13.213-33.885 19.719-.606.348 1.084-.892 1.689-1.239 37.727-21.622 23.588-18.694 40.077-21.808 5.289-1.023 10.517-1.776 15.935-1.37 5.185-.014 10.377.017 15.555-.286l-34.249 24.883z" fill="url(#e)" filter="url(#f)"/></g></svg>